<svg width="18" height="18" fill="none" xmlns="http://www.w3.org/2000/svg"><path d="M9 4.4917c-.80729 0-1.5625.20833-2.26562.625-.67709.39062-1.22396.9375-1.64063 1.64062-.39063.67709-.58594 1.41928-.58594 2.22657 0 .80729.19531 1.56251.58594 2.26561.41667.6771.96354 1.224 1.64063 1.6406.70312.3907 1.45833.586 2.26562.586.80729 0 1.5495-.1953 2.2266-.586.7031-.4166 1.25-.9635 1.6406-1.6406.4167-.7031.625-1.45832.625-2.26561 0-.80729-.2083-1.54948-.625-2.22657-.3906-.70312-.9375-1.25-1.6406-1.64062-.6771-.41667-1.41931-.625-2.2266-.625zm0 7.4219c-.80729 0-1.4974-.2865-2.07031-.8594-.57292-.5729-.85938-1.26302-.85938-2.07031 0-.80729.28646-1.4974.85938-2.07032C7.5026 6.34066 8.19271 6.0542 9 6.0542c.80729 0 1.4974.28646 2.0703.85937.5729.57292.8594 1.26303.8594 2.07032 0 .80729-.2865 1.49741-.8594 2.07031-.5729.5729-1.26301.8594-2.0703.8594zm5.7422-7.61721c-.0261.28646-.1432.53385-.3516.74218-.1823.20834-.4166.3125-.7031.3125-.2865 0-.5339-.10416-.7422-.3125-.2083-.20833-.3125-.45572-.3125-.74218 0-.28646.1042-.53386.3125-.74219.2083-.20833.4557-.3125.7422-.3125s.5339.10417.7422.3125c.2083.20833.3125.45573.3125.74219zm2.9687 1.05468c-.052-.7552-.1692-1.40625-.3515-1.95312-.2344-.65104-.599-1.21094-1.0938-1.67969-.4687-.49479-1.0286-.859373-1.6797-1.093748-.5468-.182292-1.1979-.286459-1.9531-.3125C11.9036.259928 10.6927.233887 9 .233887c-1.69271 0-2.91667.026041-3.67188.078125-.72916.026041-1.36718.130208-1.91406.3125-.65104.234375-1.22396.598958-1.71875 1.093748C1.22656 2.18701.875 2.74691.640625 3.39795.458333 3.94482.341146 4.59587.289062 5.35107.263021 6.08024.25 7.29118.25 8.98389c0 1.69271.013021 2.91671.039062 3.67191.052084.7291.169271 1.3671.351563 1.914.234375.6511.585935 1.224 1.054685 1.7188.49479.4687 1.06771.8073 1.71875 1.0156.54688.2083 1.1849.3255 1.91406.3516.75521.052 1.97917.0781 3.67188.0781 1.6927 0 2.9036-.0261 3.6328-.0781.7552-.0261 1.4063-.1302 1.9531-.3125.6511-.2344 1.211-.586 1.6797-1.0547.4948-.4948.8594-1.0677 1.0938-1.7188.1823-.5469.2864-1.1849.3125-1.914.0521-.7552.0781-1.9792.0781-3.67191s-.013-2.90365-.0391-3.63282zm-1.875 8.78903c-.3125.7813-.8724 1.3412-1.6797 1.6797-.4166.1563-1.1197.2604-2.1093.3125-.5469.0261-1.3542.0391-2.4219.0391h-1.25c-1.04167 0-1.84896-.013-2.42188-.0391-.96354-.0521-1.66666-.1562-2.10937-.3125-.78125-.3125-1.34115-.8724-1.67969-1.6797-.15625-.4427-.26041-1.1458-.3125-2.1093-.02604-.573-.03906-1.3802-.03906-2.42191v-1.25c0-1.04167.01302-1.84896.03906-2.42188.05209-.98958.15625-1.69271.3125-2.10937.3125-.80729.8724-1.36719 1.67969-1.67969.44271-.15625 1.14583-.26042 2.10937-.3125.57292-.02604 1.38021-.03906 2.42188-.03906h1.25c1.0417 0 1.849.01302 2.4219.03906.9896.05208 1.6927.15625 2.1093.3125.8073.3125 1.3672.8724 1.6797 1.67969.1563.41666.2605 1.11979.3125 2.10937.0261.54688.0391 1.35417.0391 2.42188v1.25c0 1.04171-.013 1.84891-.0391 2.42191-.052.9635-.1562 1.6666-.3125 2.1093z" fill="#fff"/></svg>