<svg width="20" height="18" fill="none" xmlns="http://www.w3.org/2000/svg"><path d="M17.9297 4.92139c.026.10416.0391.27343.0391.50781 0 1.875-.4558 3.6849-1.3672 5.4297-.9375 1.8489-2.2526 3.3203-3.9454 4.414-1.8489 1.224-3.9713 1.836-6.36714 1.836-2.29166 0-4.38802-.612-6.28906-1.836.286458.0261.611979.0391.976562.0391 1.901038 0 3.606768-.5859 5.117188-1.7578-.91146 0-1.71875-.2604-2.42187-.7813-.67709-.5468-1.14584-1.2239-1.40626-2.0312.26042.026.50782.0391.74219.0391.36459 0 .72917-.0391 1.09375-.1172-.9375-.2084-1.71875-.69013-2.34375-1.44534S.820312 7.60368.820312 6.64014v-.07813c.572918.33854 1.184898.52084 1.835938.54688-.54687-.39063-.98958-.88542-1.32813-1.48438-.338537-.59896-.507808-1.25-.507808-1.95312 0-.72917.195308-1.41927.585938-2.07032 1.01563 1.27605 2.2526 2.29167 3.71094 3.04688 1.48437.75521 3.05989 1.17187 4.72656 1.25-.05208-.3125-.07813-.625-.07813-.9375 0-.72917.1823-1.40625.54688-2.03125.3646-.65104.8594-1.15885 1.4844-1.52344.625-.36458 1.3021-.546873 2.0312-.546873.599 0 1.1459.117187 1.6407.351563.5208.23437.9765.54687 1.3671.9375.9375-.18229 1.8099-.50781 2.6172-.97656-.3125.96354-.9114 1.71875-1.7969 2.26562.7813-.10416 1.5626-.32552 2.3438-.66406-.5729.83333-1.263 1.54948-2.0703 2.14844z" fill="#fff"/></svg>