<svg width="156" height="64" viewBox="0 0 156 64" fill="none" xmlns="http://www.w3.org/2000/svg">
<path d="M3.34797 61.4639H0.719971V54.8759L1.69197 54.5519C1.93197 54.3359 2.13597 54.0959 2.30397 53.8319C2.49597 53.5439 2.66397 53.1839 2.80797 52.7519C2.95197 52.3199 3.05997 51.7919 3.13197 51.1679C3.22797 50.5199 3.29997 49.7159 3.34797 48.7559L3.70797 39.2159H13.284V54.4799H14.58V61.4639H11.988V56.9999H3.34797V61.4639ZM10.44 41.7359H6.44397L6.08397 48.8639C6.01197 50.1599 5.90397 51.2759 5.75997 52.2119C5.61597 53.1239 5.37597 53.8799 5.03997 54.4799H10.44V41.7359Z" fill="#03BCFC"/>
<path d="M26.4529 54.6239C27.1489 54.6239 27.6649 54.3959 28.0009 53.9399C28.3609 53.4599 28.5649 52.7999 28.6129 51.9599L31.5289 52.4999C31.4329 54.0359 30.9529 55.2119 30.0889 56.0279C29.2489 56.8439 27.9649 57.2519 26.2369 57.2519C25.4689 57.2519 24.8089 57.1559 24.2569 56.9639C23.7049 56.7479 23.2369 56.4839 22.8529 56.1719C22.4689 55.8359 22.1569 55.4639 21.9169 55.0559C21.7009 54.6479 21.5449 54.2399 21.4489 53.8319C21.3769 53.5439 21.3169 53.1839 21.2689 52.7519C21.2209 52.3199 21.1849 51.8519 21.1609 51.3479C21.1369 50.8199 21.1129 50.2919 21.0889 49.7639C21.0889 49.2359 21.0889 48.7439 21.0889 48.2879C21.0889 47.6879 21.0889 47.0879 21.0889 46.4879C21.1129 45.8639 21.1489 45.2759 21.1969 44.7239C21.2449 44.1719 21.3049 43.6679 21.3769 43.2119C21.4489 42.7319 21.5449 42.3359 21.6649 42.0239C22.0009 41.0879 22.5529 40.3439 23.3209 39.7919C24.1129 39.2399 25.1809 38.9639 26.5249 38.9639C28.3009 38.9639 29.5849 39.4559 30.3769 40.4399C31.1689 41.4239 31.5649 42.7799 31.5649 44.5079V48.8999H23.9329C23.9329 49.6919 23.9449 50.4719 23.9689 51.2399C24.0169 52.0079 24.1009 52.5959 24.2209 53.0039C24.5569 54.0839 25.3009 54.6239 26.4529 54.6239ZM28.6849 46.5959V45.0839C28.6849 44.6279 28.6489 44.1959 28.5769 43.7879C28.5289 43.3559 28.4209 42.9839 28.2529 42.6719C28.0849 42.3599 27.8449 42.1199 27.5329 41.9519C27.2449 41.7599 26.8609 41.6639 26.3809 41.6639C25.9489 41.6639 25.5529 41.7719 25.1929 41.9879C24.8329 42.1799 24.5449 42.5519 24.3289 43.1039C24.2089 43.4399 24.1249 43.8959 24.0769 44.4719C24.0289 45.0479 23.9929 45.7559 23.9689 46.5959H28.6849Z" fill="#03BCFC"/>
<path d="M38.7801 56.9999V39.2519H41.6241V46.9559H42.8481C43.1601 46.9559 43.4841 46.9319 43.8201 46.8839C44.1561 46.8359 44.4681 46.7279 44.7561 46.5599C45.0681 46.3679 45.3441 46.1039 45.5841 45.7679C45.8481 45.4079 46.0521 44.9399 46.1961 44.3639L47.5641 39.2519H50.3001L48.8961 44.3999C48.6561 45.2639 48.3321 45.9959 47.9241 46.5959C47.5401 47.1719 47.0361 47.5559 46.4121 47.7479C47.2041 47.9399 47.7801 48.3479 48.1401 48.9719C48.5241 49.5959 48.8361 50.3519 49.0761 51.2399L50.6241 56.9999H47.8161L46.5921 52.1039C46.4481 51.5279 46.2681 51.0599 46.0521 50.6999C45.8361 50.3159 45.5841 50.0279 45.2961 49.8359C45.0081 49.6439 44.6841 49.5119 44.3241 49.4399C43.9881 49.3679 43.6281 49.3319 43.2441 49.3319H41.6241V56.9999H38.7801Z" fill="#03BCFC"/>
<path d="M55.8801 55.4879C56.3841 55.1519 56.7921 54.8279 57.1041 54.5159C57.4401 54.2039 57.7041 53.8559 57.8961 53.4719C58.0881 53.0639 58.2201 52.5719 58.2921 51.9959C58.3641 51.4199 58.4001 50.6999 58.4001 49.8359V39.2159H67.8681V56.9999H64.9881V41.7359H60.9921V49.9439C60.9921 51.0719 60.9201 52.0439 60.7761 52.8599C60.6561 53.6519 60.4401 54.3479 60.1281 54.9479C59.8401 55.5479 59.4441 56.0639 58.9401 56.4959C58.4601 56.9039 57.8601 57.2759 57.1401 57.6119L55.8801 55.4879Z" fill="#03BCFC"/>
<path d="M82.4138 55.4519C81.9338 56.0999 81.3818 56.5559 80.7578 56.8199C80.1578 57.0839 79.4738 57.2159 78.7058 57.2159C77.9618 57.2159 77.3378 57.0719 76.8338 56.7839C76.3298 56.4719 75.9218 56.0759 75.6098 55.5959C75.3218 55.0919 75.1058 54.5399 74.9618 53.9399C74.8418 53.3159 74.7818 52.6799 74.7818 52.0319C74.7818 51.3599 74.8538 50.6879 74.9978 50.0159C75.1418 49.3439 75.3938 48.7319 75.7538 48.1799C76.1138 47.6279 76.6058 47.1839 77.2298 46.8479C77.8538 46.4879 78.6578 46.3079 79.6418 46.3079H82.4498V43.9319C82.4498 43.2359 82.2818 42.6839 81.9458 42.2759C81.6338 41.8679 81.0218 41.6639 80.1098 41.6639C79.6298 41.6639 79.1618 41.8079 78.7058 42.0959C78.2498 42.3839 77.9618 42.8519 77.8418 43.4999L75.1418 42.7439C75.4058 41.5679 75.9818 40.6439 76.8698 39.9719C77.7578 39.2999 78.8858 38.9639 80.2538 38.9639C81.8618 38.9639 83.1098 39.3359 83.9978 40.0799C84.8858 40.7999 85.3298 42.0719 85.3298 43.8959V56.9999H82.4498V55.4519H82.4138ZM82.4498 48.7919H80.3618C79.6178 48.7919 78.9578 49.0199 78.3818 49.4759C77.8298 49.9079 77.5538 50.6999 77.5538 51.8519C77.5538 52.6919 77.7338 53.3399 78.0938 53.7959C78.4538 54.2279 79.0178 54.4439 79.7858 54.4439C80.6738 54.4439 81.3338 54.1919 81.7658 53.6879C82.2218 53.1839 82.4498 52.4879 82.4498 51.5999V48.7919Z" fill="#03BCFC"/>
<path d="M98.8776 38.9639C99.1896 38.9639 99.5736 39.0119 100.03 39.1079C100.486 39.1799 100.918 39.3719 101.326 39.6839C101.758 39.9719 102.142 40.4039 102.478 40.9799C102.814 41.5559 103.042 42.3359 103.162 43.3199C103.234 44.0399 103.27 44.7959 103.27 45.5879C103.294 46.3799 103.306 47.1239 103.306 47.8199C103.306 49.1159 103.27 50.3399 103.198 51.4919C103.15 52.6199 102.97 53.6039 102.658 54.4439C102.37 55.2839 101.914 55.9559 101.29 56.4599C100.666 56.9399 99.7896 57.1799 98.6616 57.1799C97.9656 57.1799 97.3656 57.0599 96.8616 56.8199C96.3576 56.5559 95.9376 56.1839 95.6016 55.7039H95.5296V63.9119H92.6856V39.1799H95.5296V40.5479L95.6016 40.5839C95.9856 40.0559 96.3936 39.6599 96.8256 39.3959C97.2576 39.1079 97.9416 38.9639 98.8776 38.9639ZM97.9056 41.7359C97.1136 41.7359 96.5136 41.9999 96.1056 42.5279C95.6976 43.0559 95.4936 43.7279 95.4936 44.5439V51.5999C95.4936 52.4399 95.6856 53.1119 96.0696 53.6159C96.4536 54.1199 97.0656 54.3719 97.9056 54.3719C98.4336 54.3719 98.8536 54.2759 99.1656 54.0839C99.5016 53.8679 99.7536 53.5079 99.9216 53.0039C100.114 52.4999 100.246 51.8399 100.318 51.0239C100.39 50.1839 100.426 49.1519 100.426 47.9279C100.426 46.8239 100.402 45.8879 100.354 45.1199C100.33 44.3279 100.234 43.6799 100.066 43.1759C99.8976 42.6719 99.6456 42.3119 99.3096 42.0959C98.9736 41.8559 98.5056 41.7359 97.9056 41.7359Z" fill="#03BCFC"/>
<path d="M117.895 55.4519C117.415 56.0999 116.863 56.5559 116.239 56.8199C115.639 57.0839 114.955 57.2159 114.187 57.2159C113.443 57.2159 112.819 57.0719 112.315 56.7839C111.811 56.4719 111.403 56.0759 111.091 55.5959C110.803 55.0919 110.587 54.5399 110.443 53.9399C110.323 53.3159 110.263 52.6799 110.263 52.0319C110.263 51.3599 110.335 50.6879 110.479 50.0159C110.623 49.3439 110.875 48.7319 111.235 48.1799C111.595 47.6279 112.087 47.1839 112.711 46.8479C113.335 46.4879 114.139 46.3079 115.123 46.3079H117.931V43.9319C117.931 43.2359 117.763 42.6839 117.427 42.2759C117.115 41.8679 116.503 41.6639 115.591 41.6639C115.111 41.6639 114.643 41.8079 114.187 42.0959C113.731 42.3839 113.443 42.8519 113.323 43.4999L110.623 42.7439C110.887 41.5679 111.463 40.6439 112.351 39.9719C113.239 39.2999 114.367 38.9639 115.735 38.9639C117.343 38.9639 118.591 39.3359 119.479 40.0799C120.367 40.7999 120.811 42.0719 120.811 43.8959V56.9999H117.931V55.4519H117.895ZM117.931 48.7919H115.843C115.099 48.7919 114.439 49.0199 113.863 49.4759C113.311 49.9079 113.035 50.6999 113.035 51.8519C113.035 52.6919 113.215 53.3399 113.575 53.7959C113.935 54.2279 114.499 54.4439 115.267 54.4439C116.155 54.4439 116.815 54.1919 117.247 53.6879C117.703 53.1839 117.931 52.4879 117.931 51.5999V48.7919Z" fill="#03BCFC"/>
<path d="M136.231 56.9999V49.1159H131.551V56.9999H128.635V39.2159H131.551V46.7039H136.231V39.2159H139.147V56.9999H136.231Z" fill="#03BCFC"/>
<path d="M152.063 41.7359V56.9999H149.255V41.7359H145.511V39.2159H155.843V41.7359H152.063Z" fill="#03BCFC"/>
<path d="M6.51593 2.34785V25.9998H4.93193V2.34785H0.179932V0.943848H11.2679V2.34785H6.51593Z" fill="#4F4F4F"/>
<path d="M19.452 17.0718C18.924 17.0718 18.432 17.1439 17.976 17.2878C17.52 17.4318 17.124 17.6718 16.788 18.0078C16.452 18.3438 16.188 18.7878 15.996 19.3398C15.804 19.8678 15.708 20.5159 15.708 21.2838C15.708 22.2439 15.948 23.0718 16.428 23.7678C16.932 24.4398 17.796 24.7758 19.02 24.7758C20.052 24.7758 20.904 24.4998 21.576 23.9478C22.248 23.3718 22.584 22.5318 22.584 21.4278V17.0718H19.452ZM14.664 11.0958C15 10.1838 15.564 9.46385 16.356 8.93585C17.148 8.40785 18.168 8.14385 19.416 8.14385C20.928 8.14385 22.092 8.49185 22.908 9.18785C23.724 9.85985 24.132 11.0718 24.132 12.8238V25.9998H22.584V24.4158H22.548C21.972 25.2078 21.312 25.7118 20.568 25.9278C19.848 26.1198 19.14 26.2158 18.444 26.2158C17.652 26.2158 16.98 26.0838 16.428 25.8198C15.9 25.5318 15.468 25.1598 15.132 24.7038C14.796 24.2479 14.544 23.7318 14.376 23.1558C14.232 22.5558 14.16 21.9319 14.16 21.2838C14.16 20.6119 14.232 19.9518 14.376 19.3038C14.544 18.6318 14.82 18.0318 15.204 17.5038C15.588 16.9518 16.092 16.5078 16.716 16.1718C17.364 15.8358 18.168 15.6678 19.128 15.6678H22.584V12.8598C22.584 12.3798 22.536 11.9478 22.44 11.5638C22.344 11.1558 22.176 10.8078 21.936 10.5198C21.696 10.2318 21.36 10.0038 20.928 9.83585C20.52 9.66785 19.992 9.58385 19.344 9.58385C18.648 9.58385 17.988 9.75185 17.364 10.0878C16.74 10.4238 16.332 10.9278 16.14 11.5998L14.664 11.0958Z" fill="#4F4F4F"/>
<path d="M40.8999 12.0678C40.4679 13.0038 40.0359 13.9158 39.6039 14.8038C39.1959 15.6918 38.7879 16.6038 38.3799 17.5398L36.2919 21.9678H35.2119C34.8759 21.2239 34.5399 20.4918 34.2039 19.7718C33.8679 19.0518 33.5319 18.3318 33.1959 17.6118L30.6399 11.9958L30.6039 12.0318V25.9998H29.0559V8.39585H30.5679L35.7879 19.6998H35.8239L41.0799 8.39585H42.5919V25.9998H41.0439V12.0678H40.8999Z" fill="#4F4F4F"/>
<path d="M52.3414 8.14385C53.6614 8.14385 54.6694 8.39585 55.3654 8.89985C56.0614 9.40385 56.5414 10.0398 56.8054 10.8078C56.9254 11.1198 57.0094 11.5398 57.0574 12.0678C57.1294 12.5718 57.1774 13.1358 57.2014 13.7598C57.2494 14.3598 57.2734 14.9838 57.2734 15.6318C57.2734 16.2558 57.2734 16.8438 57.2734 17.3958V17.9358C57.2734 18.5598 57.2614 19.1958 57.2374 19.8438C57.2374 20.4918 57.2014 21.1999 57.1294 21.9678C57.0574 22.8078 56.8534 23.5038 56.5174 24.0558C56.2054 24.6078 55.8094 25.0518 55.3294 25.3878C54.8734 25.6999 54.3694 25.9158 53.8174 26.0358C53.2654 26.1798 52.7254 26.2519 52.1974 26.2519C50.7574 26.2519 49.6774 25.9639 48.9574 25.3878C48.2614 24.7878 47.7814 24.0318 47.5174 23.1198C47.4454 22.8318 47.3854 22.4718 47.3374 22.0398C47.2894 21.5838 47.2534 21.0918 47.2294 20.5638C47.2054 20.0358 47.1934 19.4958 47.1934 18.9438C47.1934 18.3918 47.1934 17.8758 47.1934 17.3958C47.1934 16.7478 47.1934 16.1118 47.1934 15.4878C47.2174 14.8398 47.2414 14.2278 47.2654 13.6518C47.3134 13.0758 47.3734 12.5598 47.4454 12.1038C47.5174 11.6238 47.6014 11.2398 47.6974 10.9518C48.0094 10.1118 48.5374 9.43985 49.2814 8.93585C50.0254 8.40785 51.0454 8.14385 52.3414 8.14385ZM52.3054 9.54785C51.6814 9.54785 51.0814 9.67985 50.5054 9.94385C49.9294 10.1838 49.4974 10.6638 49.2094 11.3838C49.0174 11.8638 48.8974 12.6198 48.8494 13.6518C48.8014 14.6598 48.7774 15.8358 48.7774 17.1798V18.0798C48.7774 19.2318 48.7894 20.2038 48.8134 20.9958C48.8614 21.7878 48.9574 22.3998 49.1014 22.8318C49.3174 23.4798 49.6774 23.9838 50.1814 24.3438C50.7094 24.6798 51.4174 24.8478 52.3054 24.8478C53.0974 24.8478 53.7814 24.6318 54.3574 24.1999C54.9334 23.7679 55.3174 23.1678 55.5094 22.3998C55.6054 21.9918 55.6654 21.3438 55.6894 20.4558C55.7374 19.5678 55.7614 18.6198 55.7614 17.6118C55.7614 17.0838 55.7494 16.5198 55.7254 15.9198C55.7254 15.3198 55.7134 14.7438 55.6894 14.1918C55.6894 13.6398 55.6654 13.1478 55.6174 12.7158C55.5694 12.2598 55.5094 11.9118 55.4374 11.6718C55.2214 10.9518 54.8254 10.4238 54.2494 10.0878C53.6974 9.72785 53.0494 9.54785 52.3054 9.54785Z" fill="#4F4F4F"/>
<path d="M69.5002 25.9998V17.6838H67.2682C66.4282 17.6838 65.7202 17.8638 65.1442 18.2238C64.5682 18.5598 64.1242 19.3158 63.8122 20.4918L62.4442 25.9998H60.8962L62.3722 20.2758C62.6122 19.4118 62.9122 18.6798 63.2722 18.0798C63.6322 17.4558 64.2322 17.0478 65.0722 16.8558C64.4002 16.6638 63.8722 16.2798 63.4882 15.7038C63.1282 15.1038 62.8282 14.3718 62.5882 13.5078L61.2562 8.39585H62.6962L64.1362 13.7598C64.2802 14.3118 64.4842 14.7558 64.7482 15.0918C65.0122 15.4278 65.2882 15.6918 65.5762 15.8838C65.8882 16.0758 66.2122 16.2078 66.5482 16.2798C66.8842 16.3278 67.2202 16.3518 67.5562 16.3518H69.5002V8.39585H71.0482V16.3518H72.9922C73.3042 16.3518 73.6282 16.3278 73.9642 16.2798C74.3242 16.2078 74.6482 16.0758 74.9362 15.8838C75.2482 15.6918 75.5362 15.4278 75.8002 15.0918C76.0642 14.7558 76.2682 14.3118 76.4122 13.7598L77.8522 8.39585H79.2922L77.9602 13.5078C77.7202 14.3718 77.4082 15.1038 77.0242 15.7038C76.6642 16.2798 76.1482 16.6638 75.4762 16.8558C76.3162 17.0478 76.9162 17.4558 77.2762 18.0798C77.6362 18.6798 77.9362 19.4118 78.1762 20.2758L79.6522 25.9998H78.1042L76.7362 20.4918C76.4242 19.3158 75.9802 18.5598 75.4042 18.2238C74.8282 17.8638 74.1202 17.6838 73.2802 17.6838H71.0482V25.9998H69.5002Z" fill="#4F4F4F"/>
<path d="M88.2483 8.14385C89.6883 8.14385 90.8043 8.51585 91.5963 9.25985C92.4123 9.97985 92.8563 11.0238 92.9283 12.3918C92.9523 12.6558 92.9643 12.9198 92.9643 13.1838C92.9643 13.4238 92.9643 13.6758 92.9643 13.9398V17.4318H84.7563V18.5838C84.7563 19.3518 84.7683 20.1558 84.7923 20.9958C84.8403 21.8118 84.9363 22.4238 85.0803 22.8318C85.2963 23.4558 85.6443 23.9478 86.1243 24.3078C86.6043 24.6679 87.2523 24.8478 88.0683 24.8478C89.1483 24.8478 89.9403 24.5359 90.4443 23.9118C90.9723 23.2878 91.2723 22.5198 91.3443 21.6078L92.8923 21.8958C92.7723 23.3118 92.2803 24.3918 91.4163 25.1358C90.5523 25.8798 89.4363 26.2519 88.0683 26.2519C87.3483 26.2519 86.7123 26.1678 86.1603 25.9998C85.6323 25.8078 85.1883 25.5679 84.8283 25.2799C84.4683 24.9918 84.1803 24.6679 83.9643 24.3078C83.7483 23.9238 83.5923 23.5278 83.4963 23.1198C83.4243 22.8318 83.3643 22.4598 83.3163 22.0038C83.2683 21.5478 83.2323 21.0678 83.2083 20.5638C83.2083 20.0358 83.1963 19.4958 83.1723 18.9438C83.1723 18.3918 83.1723 17.8758 83.1723 17.3958C83.1723 16.7478 83.1723 16.0998 83.1723 15.4518C83.1963 14.8038 83.2203 14.1918 83.2443 13.6158C83.2923 13.0398 83.3523 12.5118 83.4243 12.0318C83.4963 11.5518 83.5803 11.1678 83.6763 10.8798C83.9883 10.0398 84.5043 9.37985 85.2243 8.89985C85.9443 8.39585 86.9523 8.14385 88.2483 8.14385ZM85.1523 11.4558C84.9843 11.8638 84.8763 12.4758 84.8283 13.2918C84.8043 14.0838 84.7803 15.0318 84.7563 16.1358H91.4163V13.9398C91.4163 13.3878 91.3803 12.8478 91.3083 12.3198C91.2603 11.7918 91.1163 11.3238 90.8763 10.9158C90.6603 10.5078 90.3363 10.1838 89.9043 9.94385C89.4723 9.70385 88.8963 9.58385 88.1763 9.58385C87.5763 9.58385 87.0003 9.71585 86.4483 9.97985C85.8963 10.2438 85.4643 10.7358 85.1523 11.4558Z" fill="#4F4F4F"/>
<path d="M105.881 25.9998V17.6478H99.293V25.9998H97.709V8.39585H99.293V16.2438H105.881V8.39585H107.501V25.9998H105.881Z" fill="#4F4F4F"/>
<path d="M120.654 25.9998V17.6478H114.066V25.9998H112.482V8.39585H114.066V16.2438H120.654V8.39585H122.274V25.9998H120.654Z" fill="#4F4F4F"/>
<path d="M128.766 24.5238H131.394C132.21 24.5238 132.882 24.4278 133.41 24.2358C133.962 24.0198 134.394 23.7438 134.706 23.4078C135.042 23.0718 135.27 22.6878 135.39 22.2558C135.51 21.7999 135.57 21.3198 135.57 20.8158C135.57 19.7118 135.234 18.8718 134.562 18.2958C133.914 17.6958 132.846 17.3958 131.358 17.3958H128.766V24.5238ZM138.738 25.9998V8.39585H140.322V25.9998H138.738ZM127.254 25.9998V8.39585H128.766V15.9198H131.466C132.57 15.9198 133.482 16.0518 134.202 16.3158C134.922 16.5558 135.498 16.8918 135.93 17.3238C136.362 17.7558 136.662 18.2718 136.83 18.8718C137.022 19.4478 137.118 20.0718 137.118 20.7438C137.118 21.4638 137.034 22.1478 136.866 22.7958C136.698 23.4198 136.41 23.9718 136.002 24.4518C135.594 24.9318 135.018 25.3158 134.274 25.6038C133.554 25.8678 132.642 25.9998 131.538 25.9998H127.254Z" fill="#4F4F4F"/>
<path d="M147.165 1.91585C147.285 2.68385 147.621 3.33185 148.173 3.85985C148.749 4.38785 149.409 4.65185 150.153 4.65185C150.921 4.65185 151.581 4.41185 152.133 3.93185C152.709 3.42785 153.057 2.75585 153.177 1.91585H154.473C154.425 2.37185 154.305 2.83985 154.113 3.31985C153.921 3.77585 153.645 4.20785 153.285 4.61585C152.925 4.99985 152.481 5.32385 151.953 5.58785C151.449 5.82785 150.849 5.94785 150.153 5.94785C149.433 5.94785 148.809 5.82785 148.281 5.58785C147.777 5.32385 147.345 4.99985 146.985 4.61585C146.649 4.20785 146.385 3.76385 146.193 3.28385C146.025 2.80385 145.917 2.34785 145.869 1.91585H147.165ZM154.041 25.9998V11.2398H154.005C152.805 13.6878 151.617 16.1478 150.441 18.6198C149.265 21.0918 148.065 23.5518 146.841 25.9998H145.329V8.39585H146.877V23.1198L154.041 8.39585H155.589V25.9998H154.041Z" fill="#4F4F4F"/>
</svg>
